<?xml version="1.0" standalone="no"?>
<!DOCTYPE svg PUBLIC "-//W3C//DTD SVG 20010904//EN"
 "http://www.w3.org/TR/2001/REC-SVG-20010904/DTD/svg10.dtd">
<svg version="1.0" xmlns="http://www.w3.org/2000/svg"
 width="601.000000pt" height="601.000000pt" viewBox="0 0 601.000000 601.000000"
 preserveAspectRatio="xMidYMid meet">
<metadata>
Created by potrace 1.11, written by Peter Selinger 2001-2013
</metadata>
<g transform="translate(0.000000,601.000000) scale(0.100000,-0.100000)"
fill="#000000" stroke="none">
<path d="M2710 5729 c-52 -4 -130 -16 -175 -27 -44 -12 -105 -25 -135 -30 -48
-9 -115 -28 -215 -64 -16 -6 -55 -19 -85 -29 -30 -11 -68 -25 -85 -33 -16 -8
-59 -27 -95 -44 -98 -44 -111 -51 -165 -82 -27 -16 -70 -41 -95 -55 -48 -28
-104 -64 -166 -107 -22 -15 -50 -36 -64 -45 -156 -108 -470 -431 -582 -598
-15 -22 -41 -59 -57 -82 -17 -24 -38 -57 -48 -74 -57 -99 -72 -127 -111 -206
-24 -49 -55 -109 -68 -134 -13 -26 -24 -55 -24 -65 0 -11 -9 -34 -20 -52 -11
-18 -25 -54 -30 -80 -6 -26 -19 -67 -29 -92 -10 -25 -22 -65 -26 -90 -4 -25
-15 -73 -25 -107 -10 -33 -24 -108 -30 -165 -6 -56 -18 -131 -26 -166 -23
-101 -19 -424 6 -552 11 -56 20 -118 20 -138 0 -20 7 -66 16 -102 8 -36 24
-103 34 -149 10 -46 28 -106 39 -132 12 -26 21 -56 21 -66 0 -10 11 -40 25
-68 13 -27 25 -56 25 -64 0 -14 52 -131 71 -161 5 -8 16 -31 24 -50 9 -19 20
-42 25 -50 5 -8 25 -42 42 -74 42 -76 46 -81 93 -150 22 -32 47 -68 55 -80
138 -201 443 -505 636 -634 10 -7 34 -22 53 -35 19 -12 53 -34 75 -49 23 -15
59 -37 81 -48 22 -12 67 -37 100 -56 33 -19 69 -37 79 -41 10 -3 43 -19 72
-35 30 -15 62 -28 71 -28 10 0 38 -11 63 -24 25 -12 67 -29 95 -35 27 -7 54
-16 60 -21 5 -4 44 -15 85 -24 41 -8 93 -21 115 -29 22 -8 63 -17 90 -21 28
-4 104 -16 170 -27 104 -17 156 -20 385 -17 236 3 282 7 417 31 84 15 164 32
178 37 15 6 61 17 103 26 43 9 82 20 88 25 5 4 35 15 65 23 61 17 160 55 234
92 28 13 53 24 57 24 4 0 24 11 44 25 20 14 44 25 54 25 9 0 25 9 35 20 10 11
27 22 39 26 11 3 37 16 56 28 136 88 218 143 235 159 11 10 70 59 130 109 138
114 199 178 358 373 72 88 150 199 195 276 12 22 33 58 47 82 31 54 105 204
105 214 0 5 10 26 21 48 12 22 28 62 36 90 8 27 19 55 24 61 4 5 15 37 24 70
8 32 22 73 30 90 8 17 19 65 25 105 6 41 19 99 29 129 31 92 47 454 31 742 -9
173 -17 245 -30 278 -10 25 -23 83 -30 130 -6 46 -20 100 -29 120 -10 19 -22
53 -25 75 -4 21 -16 55 -25 75 -10 19 -21 48 -25 65 -4 16 -19 54 -33 85 -50
110 -85 185 -94 200 -5 8 -18 34 -29 56 -11 23 -27 47 -35 54 -8 7 -15 18 -15
25 0 7 -9 23 -19 36 -10 14 -27 38 -37 55 -63 103 -224 302 -342 422 -93 94
-232 214 -321 277 -23 17 -57 41 -76 55 -18 14 -57 39 -85 55 -28 17 -68 41
-88 53 -39 26 -134 74 -227 116 -33 15 -73 34 -90 42 -30 14 -112 43 -195 70
-25 8 -65 22 -90 30 -25 9 -70 20 -100 26 -30 5 -89 18 -131 29 -42 10 -130
23 -195 29 -136 11 -523 11 -664 -1z m-447 -1283 c12 -13 33 -38 47 -55 14
-17 32 -39 40 -49 43 -52 79 -100 94 -127 9 -16 32 -50 51 -75 19 -25 40 -56
46 -70 6 -14 17 -33 26 -42 15 -17 37 -53 70 -118 10 -19 28 -49 41 -67 12
-17 22 -38 22 -46 0 -8 9 -26 20 -40 11 -14 27 -44 35 -67 8 -23 24 -53 35
-67 11 -14 20 -33 20 -42 0 -9 11 -34 25 -56 13 -22 25 -47 25 -55 0 -8 11
-37 24 -65 34 -72 66 -153 81 -205 7 -25 22 -67 34 -95 22 -55 45 -124 66
-198 8 -27 23 -63 34 -80 11 -18 25 -64 31 -102 6 -39 17 -79 25 -91 7 -12 19
-59 25 -105 7 -46 20 -102 30 -124 10 -22 22 -81 28 -132 6 -51 18 -105 26
-121 9 -17 20 -79 26 -138 6 -60 17 -134 25 -164 9 -30 20 -110 25 -177 6 -68
17 -153 24 -190 15 -71 31 -289 41 -558 3 -88 11 -181 17 -208 11 -42 10 -50
-8 -75 -12 -16 -43 -35 -75 -46 -77 -28 -467 -30 -574 -4 -38 10 -114 22 -168
28 -54 6 -111 17 -126 24 -15 8 -56 20 -91 26 -35 6 -80 20 -99 30 -20 9 -52
21 -71 25 -19 4 -55 18 -80 31 -25 13 -52 24 -61 24 -9 0 -28 9 -42 20 -14 11
-29 20 -33 20 -4 0 -46 19 -92 42 -58 29 -91 52 -103 73 -11 16 -19 32 -19 35
0 3 18 26 41 50 22 25 48 56 57 70 9 14 25 31 34 38 10 7 18 19 18 27 0 7 11
26 24 42 13 15 32 43 42 62 10 19 31 55 46 80 15 25 34 62 43 81 10 19 23 42
30 50 7 8 18 35 25 60 6 25 20 54 30 65 9 11 21 38 25 60 3 22 15 54 25 70 11
17 22 51 26 75 3 25 15 61 26 80 11 19 25 67 30 105 5 39 16 81 25 94 8 13 21
73 28 136 7 62 20 133 29 159 11 32 19 116 26 274 6 125 15 249 20 275 6 26
10 76 10 110 0 123 -31 475 -55 612 -13 77 -26 160 -29 185 -3 25 -14 72 -24
105 -11 33 -23 87 -27 120 -4 33 -15 76 -25 95 -10 19 -21 60 -25 90 -4 30
-18 75 -31 100 -26 49 -31 99 -12 118 17 17 26 15 51 -12z m902 -731 c38 -20
77 -40 85 -45 8 -5 31 -17 50 -25 19 -9 56 -28 81 -43 26 -15 69 -39 95 -54
27 -15 67 -41 89 -57 22 -17 56 -40 75 -51 46 -27 89 -59 207 -155 206 -167
391 -355 576 -588 12 -15 29 -35 38 -46 9 -10 30 -38 46 -62 17 -24 46 -61 64
-81 35 -38 64 -76 102 -137 54 -85 68 -109 87 -148 12 -24 25 -43 29 -43 5 0
16 -19 26 -42 9 -24 22 -50 29 -58 7 -8 19 -31 26 -50 7 -19 22 -44 32 -56 10
-11 18 -27 18 -36 0 -8 11 -31 24 -51 13 -19 27 -50 31 -68 4 -19 16 -43 26
-54 10 -11 25 -48 34 -82 15 -58 15 -65 -1 -95 -21 -42 -159 -205 -240 -283
-134 -131 -293 -265 -315 -265 -4 0 -15 -7 -24 -16 -25 -25 -128 -94 -141 -94
-6 0 -18 -8 -28 -18 -9 -11 -34 -24 -55 -31 -21 -6 -44 -18 -51 -26 -6 -7 -28
-19 -48 -26 -20 -6 -44 -17 -52 -24 -19 -16 -130 -62 -190 -79 -25 -7 -59 -20
-75 -29 -45 -23 -100 -31 -125 -17 -21 11 -21 12 -15 278 8 303 -6 653 -30
752 -9 36 -20 112 -26 170 -5 58 -18 132 -28 165 -11 33 -22 92 -26 130 -4 39
-14 86 -22 105 -8 19 -21 73 -29 120 -9 47 -22 95 -29 107 -8 12 -19 52 -25
90 -6 37 -20 85 -30 106 -11 21 -20 54 -20 75 -1 20 -8 55 -16 77 -9 22 -24
67 -33 100 -10 33 -26 74 -35 90 -9 17 -16 39 -16 51 0 12 -11 42 -24 67 -14
25 -28 63 -32 83 -4 21 -17 53 -30 72 -13 19 -24 45 -24 57 0 12 -9 34 -21 49
-11 14 -25 43 -31 64 -6 20 -19 49 -29 64 -11 14 -19 31 -19 37 0 6 -13 37
-30 67 -23 44 -27 60 -19 75 14 27 34 24 114 -16z"/>
</g>
</svg>
